<?xml version="1.0" encoding="UTF-8"?>
<svg width="409.66pt" height="270.4pt" preserveAspectRatio="xMidYMid" version="1.0" viewBox="0 0 409.66 270.4" xmlns="http://www.w3.org/2000/svg">
<g transform="matrix(.05 0 0 -.05 -21.889 641.2)" fill="#607466">
<path d="m4110 12791c-394-73-895-294-1149-507l-69-58 79-54c95-65 741-450 779-465 15-6 59 25 100 71 85 94 274 194 401 213 101 15 85-34 148 445 55 414 60 384-54 382-52-1-158-13-235-27z"/>
<path d="m4553 12757c-6-37-26-184-43-327-55-472-55-430-5-430 212-3 479-227 567-476 46-127-6-114 598-154 264-17 606-41 760-52 154-12 309-19 344-15l64 7-60 118c-388 756-1208 1306-2060 1383l-153 13z"/>
<path d="m2668 12016c-270-282-261-205-137-1106 124-905 108-832 189-860 87-30 101-21 687 449l409 328-49 75c-102 153-132 366-83 578 29 124 49 105-333 332-144 85-310 184-371 220-178 107-195 106-312-16z"/>
<path d="m7870 11875c-612-218-467-1115 180-1115 533 0 782 634 388 988-153 137-390 191-568 127z"/>
<path d="m2285 11515c-183-227-403-972-405-1368 0-118-22-104 293-189l164-43 91 77c61 52 91 94 92 128 3 84-187 1420-202 1420-7 0-22-11-33-25z"/>
<path d="m5110 11202c-7-54-40-155-72-224-70-146-90-116 225-329 243-163 248-165 287-129 84 78 236 102 361 57 60-22 72-17 261 117 109 77 311 214 448 305 138 91 252 168 255 170 8 7-872 72-1245 92-209 10-408 24-443 30-62 10-63 9-77-89z"/>
<path d="m6706 10916c-664-436-659-432-614-519 25-49 30-95 21-189l-11-124 164-111c90-61 289-196 442-302 298-204 326-216 341-146 41 179 53 261 64 441 19 317-63 863-157 1043l-28 52z"/>
<path d="m4781 10687c-60-37-162-78-225-91l-116-24v-456c0-338 6-456 24-456 13 0 62-19 109-41l86-42 95 66c53 36 169 120 257 186 89 67 219 161 290 209l129 88v271l-248 166c-136 92-258 172-270 179-12 6-71-19-131-55z"/>
<path d="m3850 10696c-46-26-71-46-547-428-191-153-359-286-373-296-19-15-16-38 15-108 30-68 36-113 27-184l-13-94 346-84c710-171 715-171 715-92 0 83 112 208 210 234l90 24v907l-89 14c-49 7-139 40-200 72-124 66-126 67-181 35z"/>
<path d="m910 10438c-522-67-650-772-187-1029 141-78 377-85 509-15 557 296 301 1125-322 1044z"/>
<path d="m5092 9744-377-275-4-140c-3-76-11-153-19-171-10-24 54-77 276-228l289-196 53 63c30 35 96 78 152 98 66 23 103 48 109 75 14 61 149 884 149 906 0 11-27 30-61 41-33 12-84 40-113 62-68 54-28 75-454-235z"/>
<path d="m6001 9971c-12-15-51-38-87-53-78-31-93-52-94-123 0-31-26-206-58-390-95-545-98-484 22-561l104-66 121 53c66 30 166 79 221 109s199 106 320 170c121 63 264 142 317 176l98 61-56 42c-67 49-400 279-682 471-165 112-208 133-226 111z"/>
<path d="m1908 9798c18-163 29-171 222-183l160-11-14 194-163 54c-90 30-176 59-191 64-23 9-25-12-14-118z"/>
<path d="m1960 9494c0-223 382-940 653-1224l114-120 14 60c8 33 21 85 28 116 7 32 54 97 105 146l92 90-50 184c-27 101-81 285-118 409l-68 224-112 1c-87 0-129 11-187 50-57 39-115 55-257 70-230 24-214 25-214-6z"/>
<path d="m2855 9458c-27-15-30-29-16-56 11-20 38-103 60-184 23-81 75-263 116-405l76-256 115-39 116-39 108 85c158 126 647 544 648 556 9 80-83 108-1148 349-22 5-56 0-75-11z"/>
<path d="m6870 9158c-33-21-259-144-503-272l-442-234 9-71c6-50-6-100-40-166l-49-95 158-115c87-63 166-118 176-121 47-16 340 309 491 546 127 200 304 579 265 569-3-1-32-19-65-41z"/>
<path d="m4059 8955c-49-47-143-130-208-185s-192-165-283-245l-166-146 31-74c36-84 26-211-24-306-31-60-30-62 68-185 226-282 386-351 884-384l210-14 119 157c182 240 373 464 508 596 138 135 137 133 81 208-23 31-48 100-55 153l-14 97-306 208-307 208-63-30c-132-62-174-60-354 14-19 8-64-19-121-72z"/>
<path d="m5630 8219c-32-10-92-13-133-6-89 14-361-240-612-573-167-221-163-228 110-169 334 73 634 200 930 393 176 115 181 127 84 196-39 28-108 79-155 115-87 67-123 74-224 44z"/>
<path d="m3200 7838c-57-23-53-27 124-119 148-76 147-76 60 41-76 103-98 112-184 78z"/>
</g>
</svg>
